<?xml version="1.0" standalone="no"?>
<!DOCTYPE svg PUBLIC "-//W3C//DTD SVG 20010904//EN"
 "http://www.w3.org/TR/2001/REC-SVG-20010904/DTD/svg10.dtd">
<svg version="1.0" xmlns="http://www.w3.org/2000/svg"
 width="512.000000pt" height="513.000000pt" viewBox="0 0 512.000000 513.000000"
 preserveAspectRatio="xMidYMid meet">

<g transform="translate(0.000000,513.000000) scale(0.100000,-0.100000)"
fill="#000000" stroke="none">
<path d="M601 5119 c-149 -29 -280 -147 -332 -297 -18 -53 -19 -121 -19 -2257
0 -2136 1 -2204 19 -2257 53 -154 183 -268 340 -298 74 -14 3837 -14 3912 0
120 22 252 118 304 220 59 116 55 -48 55 2335 0 2383 4 2219 -55 2335 -52 102
-184 198 -304 220 -67 12 -3856 12 -3920 -1z m3916 -309 c66 -40 68 -50 68
-400 l0 -315 -2022 -3 -2023 -2 0 312 c0 349 2 361 69 405 l34 23 1921 0
c1888 0 1922 0 1953 -20z m71 -2707 c-3 -1613 -4 -1700 -21 -1731 -10 -18 -32
-42 -50 -52 -31 -20 -65 -20 -1953 -20 l-1921 0 -34 23 c-19 12 -42 38 -51 57
-17 33 -18 136 -18 1728 l0 1692 2025 0 2025 0 -2 -1697z"/>
<path d="M3182 4590 c-51 -31 -74 -76 -69 -136 2 -29 12 -62 23 -77 37 -51 65
-57 272 -57 180 0 191 1 222 23 38 25 70 80 70 117 0 44 -42 113 -80 132 -30
15 -64 18 -220 18 -167 0 -188 -2 -218 -20z"/>
<path d="M3975 4591 c-52 -32 -68 -58 -73 -116 -3 -43 0 -61 17 -88 37 -60 65
-67 278 -67 219 0 239 6 275 86 22 52 19 90 -11 140 -34 56 -68 64 -273 64
-161 0 -187 -2 -213 -19z"/>
<path d="M2435 3470 c-423 -41 -791 -254 -1037 -599 -326 -457 -350 -1072 -60
-1556 260 -435 722 -696 1229 -695 676 1 1251 470 1398 1140 22 99 31 361 16
470 -66 492 -386 921 -836 1123 -207 93 -487 139 -710 117z m385 -319 c225
-59 388 -149 541 -301 129 -129 222 -278 279 -449 40 -119 39 -125 -12 -140
-24 -7 -95 -41 -158 -76 -138 -76 -183 -89 -294 -83 -90 5 -78 0 -289 111
-108 56 -196 77 -325 77 -125 0 -230 -26 -331 -82 -180 -99 -187 -102 -286
-106 -110 -5 -153 7 -270 75 -44 25 -111 58 -150 74 -81 32 -79 27 -38 149
141 418 493 708 938 774 73 11 322 -3 395 -23z m-121 -1176 c20 -7 77 -36 126
-64 143 -82 242 -111 380 -111 140 0 236 29 385 114 l95 55 3 -26 c9 -68 -46
-271 -108 -394 -55 -111 -113 -192 -208 -291 -319 -331 -802 -433 -1231 -261
-322 129 -568 401 -665 735 -23 81 -49 228 -41 236 2 2 41 -18 87 -45 148 -88
262 -123 405 -123 136 0 248 36 428 139 41 23 94 45 125 50 64 11 167 5 219
-14z"/>
</g>
</svg>
